<?xml version="1.0" encoding="utf-8"?>
<svg version="1.1" xmlns="http://www.w3.org/2000/svg" width="512" height="512">
  <path d="M 0 0 C 2.262 1.756 4.491 3.551 6.712 5.357 C 9.404 7.528 12.154 9.621 14.902 11.72 C 15.985 12.553 17.069 13.386 18.152 14.22 C 18.688 14.633 19.224 15.045 19.777 15.47 C 37.652 29.22 37.652 29.22 39.276 30.469 C 40.362 31.305 41.449 32.141 42.536 32.977 C 45.195 35.022 47.853 37.068 50.511 39.115 C 56.633 43.828 62.763 48.529 68.902 53.22 C 77.114 59.496 85.307 65.796 93.496 72.103 C 99.623 76.82 105.758 81.525 111.902 86.22 C 125.966 96.972 125.966 96.972 131.759 101.454 C 133.548 102.833 135.344 104.202 137.14 105.572 C 138.394 106.538 139.648 107.504 140.902 108.47 C 141.478 108.906 142.053 109.342 142.647 109.791 C 148.902 114.643 153.475 119.894 155.402 127.72 C 156.157 134.413 154.8 139.875 151.402 145.72 C 146.978 150.845 141.295 155.07 134.426 155.983 C 132.299 156.064 130.191 156.058 128.062 156.013 C 127.295 156.009 126.528 156.005 125.738 156 C 123.313 155.984 120.889 155.946 118.464 155.908 C 116.81 155.893 115.156 155.879 113.501 155.867 C 109.468 155.834 -150.618 155.902 -154.54 155.94 C -156.231 155.96 -157.923 155.987 -159.614 156.022 C -162.057 156.071 -164.499 156.093 -166.942 156.111 C -168.061 156.142 -168.061 156.142 -169.203 156.173 C -176.11 156.176 -181.149 153.836 -186.348 149.345 C -192.73 141.9 -194.323 136.343 -193.598 126.72 C -191.302 116.126 -183.583 110.992 -175.254 104.937 C -172.522 102.93 -169.842 100.856 -167.161 98.783 C -166.068 97.94 -164.976 97.098 -163.883 96.255 C -163.341 95.837 -162.798 95.418 -162.239 94.986 C -159.528 92.895 -156.813 90.808 -154.098 88.72 C -150.894 86.256 -147.691 83.792 -144.489 81.326 C -137.638 76.051 -130.774 70.794 -123.905 65.544 C -117.459 60.616 -111.027 55.671 -104.598 50.72 C -101.887 48.634 -99.175 46.549 -96.463 44.463 C -93.805 42.418 -91.146 40.372 -88.489 38.326 C -81.637 33.05 -74.773 27.79 -67.9 22.542 C -64.105 19.642 -60.318 16.734 -56.542 13.808 C -54.458 12.197 -52.366 10.597 -50.271 9 C -49.088 8.095 -47.908 7.185 -46.73 6.272 C -32.164 -4.989 -16.735 -12.563 0 0 Z" fill="#FC6211" transform="translate(225.59814453125,177.27978515625)"/>
  <path d="M0 0 C79.53 0 159.06 0 241 0 C241.0825 21.615 241.165 43.23 241.25 65.5 C241.28641602 72.31849609 241.32283203 79.13699219 241.36035156 86.16210938 C241.37841797 94.50488281 241.37841797 94.50488281 241.3817749 98.41369629 C241.38790746 101.13697629 241.40044855 103.85950788 241.42230225 106.5826416 C241.45501066 110.71343771 241.45562266 114.84368409 241.45410156 118.97460938 C241.468494 120.18244835 241.48288643 121.39028732 241.497715 122.63472748 C241.45829843 130.6422618 240.54122381 136.36040886 234.75 142.3125 C226.59419999 147.31719546 219.47165594 147.40720208 210.09375 147.29296875 C208.75997396 147.28736317 207.42619169 147.28309763 206.09240723 147.28010559 C202.6070811 147.26873227 199.12213888 147.23933169 195.63696289 147.20599365 C192.07052807 147.1751291 188.50403031 147.1615655 184.9375 147.14648438 C177.95817711 147.11445327 170.97910706 147.06334979 164 147 C163.99453156 145.46024002 163.99453156 145.46024002 163.98895264 143.88937378 C163.95198534 134.20783088 163.89419367 124.52660553 163.81609726 114.84530449 C163.77661542 109.86821056 163.74443037 104.89129374 163.72900391 99.9140625 C163.71384203 95.10926376 163.67940471 90.30495192 163.63169098 85.50037003 C163.61687236 83.66883708 163.60895871 81.83723463 163.60811615 80.00564194 C163.60574616 77.43666641 163.57866509 74.86903611 163.54589844 72.30029297 C163.5509288 71.54575333 163.55595917 70.79121368 163.56114197 70.0138092 C163.46014077 64.88402289 162.25481292 61.94099222 159 58 C152.53041063 53.81684742 145.26140441 54.56714881 137.78125 54.6015625 C136.39554695 54.59953818 135.00984494 54.59662376 133.62414551 54.59286499 C130.72930695 54.58845843 127.83474736 54.59481834 124.93994141 54.60888672 C121.24465983 54.62597802 117.55003211 54.61612779 113.85477448 54.59816933 C110.99614611 54.587286 108.13767065 54.59079853 105.27903748 54.5985527 C103.25897798 54.60150373 101.23891234 54.59245393 99.21887207 54.5831604 C90.19363191 54.65060893 90.19363191 54.65060893 82 58 C77.44330026 62.91643919 76.8446057 66.15453319 76.79467773 72.66259766 C76.78477814 73.45292892 76.77487854 74.24326019 76.76467896 75.05754089 C76.73302878 77.6763507 76.70829267 80.29517866 76.68359375 82.9140625 C76.66302726 84.72724892 76.64203087 86.54043052 76.62062073 88.35360718 C76.56536858 93.13098242 76.51597318 97.90840115 76.46777344 102.68585205 C76.41758134 107.55883668 76.36188333 112.43175798 76.30664062 117.3046875 C76.19902062 126.8697376 76.09758419 136.43484262 76 146 C67.75911868 146.09283662 59.51845724 146.16383357 51.27718163 146.20724869 C47.45006158 146.22808989 43.62330031 146.256343 39.79638672 146.30175781 C36.1005261 146.34534101 32.40500974 146.36916318 28.7089119 146.37950897 C27.30152597 146.38687813 25.89415807 146.40126863 24.4869194 146.42292023 C22.51018529 146.45211392 20.53310196 146.45363525 18.55615234 146.45410156 C17.43252289 146.46298401 16.30889343 146.47186646 15.1512146 146.48101807 C8.58937221 145.47938373 4.76453261 141.0552295 1 136 C-0.02806713 132.9157986 -0.12329974 130.82102263 -0.12025452 127.59004211 C-0.12163201 126.46917111 -0.12300951 125.34830011 -0.12442875 124.19346333 C-0.12083064 122.95826545 -0.11723253 121.72306757 -0.11352539 120.45043945 C-0.11364593 119.13175715 -0.11376646 117.81307486 -0.11389065 116.45443249 C-0.11411657 112.88476646 -0.10831726 109.3151339 -0.10128021 105.74547577 C-0.09558875 102.39684643 -0.09531728 99.04821856 -0.09460449 95.69958496 C-0.08935545 85.90388553 -0.07539432 76.10819235 -0.0625 66.3125 C-0.041875 44.429375 -0.02125 22.54625 0 0 Z " fill="#F83756" transform="translate(86,333)"/>
  <path d="M0 0 C0.80824219 -0.04898438 1.61648438 -0.09796875 2.44921875 -0.1484375 C9.83882405 1.20245897 15.86016488 7.28272123 21.4375 12 C22.93902809 13.25389388 24.44164665 14.50648301 25.9453125 15.7578125 C26.68426758 16.37301758 27.42322266 16.98822266 28.18457031 17.62207031 C31.1855249 20.09417379 34.24196219 22.49028121 37.3125 24.875 C42.66886137 29.04747137 47.9446011 33.31081705 53.1875 37.625 C53.87714844 38.19154297 54.56679688 38.75808594 55.27734375 39.34179688 C58.7777096 42.23179064 62.25192178 45.15169014 65.6953125 48.109375 C66.34129395 48.66334961 66.98727539 49.21732422 67.65283203 49.78808594 C71.11184552 53.09546865 72.16756836 56.21554688 72.75 60.875 C71.58723434 70.17712529 62.24638397 76.91293334 55.5 82.6875 C51.9235116 85.75000205 48.61860507 89.02780616 45.3125 92.375 C41.48262943 96.25229196 37.59198687 99.93743616 33.4375 103.46875 C30.61856068 105.99750439 27.97311163 108.68146001 25.3125 111.375 C21.48261987 115.25227963 17.59198698 118.93743606 13.4375 122.46875 C10.06472774 125.49432511 6.92190845 128.74561751 3.73876953 131.96826172 C0.38980733 135.34265103 -3.06021178 138.51420561 -6.6875 141.58984375 C-9.17500058 143.81013236 -11.48117487 146.17913636 -13.8125 148.5625 C-18.96943483 153.77488574 -23.35056242 157.95798677 -30.9375 158.6875 C-38.56993231 158.05146397 -44.11395886 152.59173258 -49.75 147.8125 C-56.19779418 142.40393047 -56.19779418 142.40393047 -62.80078125 137.1875 C-63.75488892 136.45575562 -63.75488892 136.45575562 -64.72827148 135.70922852 C-65.91656271 134.80436839 -67.10981584 133.9059728 -68.30883789 133.01538086 C-72.39524456 129.89410232 -75.27258402 127.36723843 -76.0012207 122.11254883 C-76.29441703 115.85630063 -74.99741851 111.7623562 -71.75 106.5 C-71.31324951 105.75371338 -70.87649902 105.00742676 -70.42651367 104.23852539 C-68.87161574 101.60175333 -67.28119494 98.9884969 -65.6875 96.375 C-64.37974569 94.20470579 -63.07248198 92.03411591 -61.765625 89.86328125 C-58.87632815 85.07502044 -55.96815025 80.29854286 -53.05078125 75.52734375 C-49.05937081 68.99857528 -45.11578969 62.44196011 -41.1875 55.875 C-33.07870375 42.33968992 -24.92859657 28.83020863 -16.6875 15.375 C-15.90826172 14.10076172 -15.90826172 14.10076172 -15.11328125 12.80078125 C-13.85693671 10.75614209 -12.58891397 8.71964944 -11.3125 6.6875 C-10.66539062 5.65238281 -10.01828125 4.61726563 -9.3515625 3.55078125 C-6.80563191 0.22194712 -3.96748858 0.16193831 0 0 Z " fill="#14BD50" transform="translate(382.6875,40.625)"/>
  <path d="M 0 0 C 1.489 0.025 1.489 0.025 3.007 0.051 C 4.077 0.08 5.147 0.109 6.249 0.139 C 7.362 0.162 8.475 0.185 9.621 0.208 C 11.983 0.258 14.344 0.313 16.705 0.373 C 20.271 0.462 23.837 0.538 27.403 0.61 C 63.146 1.378 63.146 1.378 69.01 6.151 C 74.816 15.001 68.386 34.231 66.772 44.116 C 66.447 46.123 66.122 48.131 65.796 50.138 C 65.117 54.32 64.433 58.501 63.746 62.682 C 62.868 68.031 62.009 73.384 61.154 78.737 C 60.491 82.873 59.814 87.006 59.134 91.139 C 58.811 93.113 58.494 95.087 58.181 97.061 C 57.743 99.818 57.287 102.57 56.826 105.323 C 56.701 106.132 56.577 106.941 56.449 107.774 C 55.444 113.598 53.361 117.584 49.319 121.999 C 45.673 123.819 42.101 123.599 38.081 123.585 C 37.213 123.59 36.345 123.595 35.451 123.601 C 33.617 123.607 31.783 123.606 29.948 123.597 C 27.152 123.589 24.358 123.617 21.561 123.649 C 19.776 123.651 17.991 123.65 16.206 123.647 C 15.374 123.658 14.543 123.67 13.686 123.681 C 8.354 123.618 5.131 122.848 1.01 119.151 C -1.918 114.69 -2.637 110.27 -3.165 105.057 C -3.256 104.257 -3.346 103.458 -3.44 102.633 C -3.738 99.974 -4.02 97.313 -4.302 94.651 C -4.509 92.773 -4.717 90.895 -4.926 89.017 C -5.377 84.944 -5.822 80.871 -6.263 76.797 C -7.032 69.721 -7.838 62.649 -8.646 55.577 C -9.062 51.909 -9.478 48.241 -9.893 44.573 C -10.165 42.176 -10.437 39.779 -10.711 37.383 C -11.096 34 -11.475 30.617 -11.853 27.233 C -11.968 26.23 -12.084 25.226 -12.202 24.192 C -13.796 9.764 -13.796 9.764 -11.99 6.151 C -11.051 3.873 -8.99 2.151 -7.254 1.028 C -4.605 -0.305 -2.786 -0.061 0 0 Z" fill="#43C53E" transform="translate(230.989501953125,32.848876953125)"/>
  <path d="M0 0 C4.08404777 2.67469123 5.63155246 3.93956192 7.25 8.59765625 C7.52598634 10.08133837 7.77382693 11.57041193 8 13.0625 C8.1453418 13.89160889 8.29068359 14.72071777 8.44042969 15.57495117 C8.77832375 17.52915087 9.10374281 19.48552903 9.41992188 21.44335938 C9.97717547 24.86005565 10.56406845 28.27018147 11.15979004 31.68031311 C11.86508302 35.72291067 12.55796584 39.76761502 13.25 43.8125 C13.45544434 45.00675095 13.45544434 45.00675095 13.66503906 46.22512817 C14.05913709 48.53057193 14.44485429 50.8372656 14.828125 53.14453125 C14.94665833 53.83246765 15.06519165 54.52040405 15.18731689 55.22918701 C16.9387705 65.93470489 16.9387705 65.93470489 14.75 70.75 C11.86057519 74.46497476 10.15115931 75.85018737 5.35498047 76.47436523 C3.81792125 76.53798633 2.2801521 76.58554672 0.7421875 76.62109375 C-0.11956085 76.65246933 -0.9813092 76.68384491 -1.86917114 76.71617126 C-3.82211128 76.78517046 -5.77530065 76.84733055 -7.7286377 76.9039917 C-11.25817893 77.00757706 -14.78664422 77.1316138 -18.31542969 77.25830078 C-25.79695667 77.52277205 -33.27912686 77.76173579 -40.76165771 77.99578857 C-43.58912519 78.08504264 -46.41649163 78.17730129 -49.24386406 78.26950932 C-52.01686662 78.35947548 -54.78993361 78.4473173 -57.56302261 78.53457451 C-59.482556 78.59537164 -61.40203082 78.65800909 -63.32150269 78.72071838 C-66.88077907 78.83030353 -70.4400165 78.91695604 -74 79 C-75.88117523 79.06439774 -75.88117523 79.06439774 -77.800354 79.13009644 C-79.64545563 79.17095871 -79.64545563 79.17095871 -81.52783203 79.21264648 C-83.17696091 79.25940773 -83.17696091 79.25940773 -84.85940552 79.30711365 C-88.52086053 78.94906589 -90.86218636 77.88916461 -94 76 C-96.77592561 72.4426466 -97.6088295 69.06781387 -98.38671875 64.66796875 C-98.60263672 63.45689453 -98.81855469 62.24582031 -99.04101562 60.99804688 C-99.25435547 59.74056641 -99.46769531 58.48308594 -99.6875 57.1875 C-99.91244141 55.94162109 -100.13738281 54.69574219 -100.36914062 53.41210938 C-103.06941986 37.94090462 -103.06941986 37.94090462 -101 32.25 C-94.87659784 25.36117258 -83.66732219 23.53791599 -75.109375 20.9375 C-73.55751862 20.46020478 -72.00586597 19.98224669 -70.45440674 19.50366211 C-66.38386654 18.24973575 -62.3108866 17.00393574 -58.23724365 15.76013184 C-52.5188347 14.01251668 -46.80383551 12.25377712 -41.08843994 10.49633789 C-38.05296771 9.5629875 -35.01660597 8.63262812 -31.97943115 7.70483398 C-30.57051333 7.27354905 -29.16167722 6.8419971 -27.75292969 6.41015625 C-27.08386471 6.2051651 -26.41479973 6.00017395 -25.72546005 5.78897095 C-20.60638249 4.21044281 -15.53282197 2.51591212 -10.47491455 0.75195312 C-6.61927988 -0.4195041 -4.0113462 -0.62245027 0 0 Z " fill="#0EA64A" transform="translate(465,188)"/>
</svg>