<?xml version="1.0" encoding="utf-8"?>
<svg xmlns="http://www.w3.org/2000/svg" fill-rule="evenodd" clip-rule="evenodd" image-rendering="optimizeQuality" shape-rendering="geometricPrecision" text-rendering="geometricPrecision" viewBox="0 0 38056.6 32725.5">
  <defs>
    <style>
      .fil6{fill:#7d7e7b}.fil8{fill:#8f862b}.fil7{fill:#d9c051}.fil2{fill:#f9f3b4}.fil0{fill:#fe7900}.fil5{fill:#feea2b}.fil3{fill:#fefefe}
    </style>
  </defs>
  <g id="Layer_x0020_1">
    <path fill="#d7d7d7" d="M 0 3811 L 0 30009 C 503 31559 1919 31190 3597 31190 L 32479 31189 C 33056 31189 34306 31255 34807 31133 C 35463 30973 35800 30465 35914 29834 L 35918 16195 C 35824.488 16242.224 35895.015 4489.792 35871.324 3953.132 C 35847.134 3405.167 35861.619 3432.137 35539.401 3076.534 C 35309.351 2822.648 34919.777 2587.033 34509.541 2587.451 C 19768.905 2602.459 9054 2624 3950 2624 C 3174 2624 2114 2563 1374 2629 C 610 2697 252 3147 0 3811"/>
    <path d="M 2182 28924 L 16424 28927 C 16501 28548 16471 5059.842 16420 4830.842 L 1935.311 4594.639 L 2182 28924 Z" class="fil2"/>
    <path d="M 26427 708 C 23867 842 21349 1711 19435 3460 C 17519 5212 16330 7625 16524 10262 C 17109 18200 28150 21662 34454 16011 C 36363 14299 37512 11794 37331 9212 C 36954 3810 31498 443 26427 708" class="fil3"/>
    <path d="M26520 4404c1328-118 2930 468 3874 1418 1093 1100 1607 2063 1733 3638 234 2936-2205 5476-5077 5639-3014 172-5403-2141-5631-5097-102-1321 501-2953 1435-3899 1100-1113 2107-1560 3666-1699m-96-1441c-1851 141-3379 788-4649 2167-4197 4557-543 11829 5369 11414 3761-264 6668-3382 6427-7189-233-3671-3413-6676-7147-6392" class="fil0"/>
    <path fill="#595959" d="M0 30009v1531c0 375 289 1016 1215 1186h33461c73-45 833-131 1137-934 233-613 1-1583 133-1958h-32c-114 631-451 1139-1107 1299-501 122-1751 56-2328 56l-28882 1c-494 0-974 23-1416 19-1059-11-1898-179-2181-1200"/>
    <path d="M26697 20088c124 142 303 269 424 435 112 153 226 325 314 494 233 446 273 880 246 1396 11 688 15 783-282 1392-246 505-523 566-800 924l1271 1713c95 137 239 286 329 404l972 1295c325 155 1405 72 1827 75 452 3 1549 55 1927-11 103-212 31-5155 20-5829-68-198-415-541-553-707-201-242-366-463-582-688l-866-1034c-49-71-229-323-247-403-601 181-1202 322-1846 419-340 51-703 69-1043 111-328 41-762-3-1111 14" class="fil5"/>
    <path d="M 16424 28927 L 15769 28920 L 3881 28919 L 2182 28924 L 2178 4898 L 16420 4898 C 16417 4600.934 16428.727 4901.967 16434.046 4214 L 15519 4208 L 1458 4209 L 1458 29670 L 16418 29681 L 16424 28927 Z" class="fil6"/>
    <path d="m3881 28919 11888 1c43-391-11-1144-65-1537-272-1955-1121-3821-2802-4950a6525 6525 0 0 0-987-567l-1115-443c3082-572 5340-3254 5043-6436-298-3191-2815-5554-6040-5547-1650 3-2925 572-4151 1643-996 870-1801 2626-1841 3941-51 1644 321 3099 1420 4359 1622 1860 3316 1881 3631 2065-2424 737-3990 2270-4664 4689-226 807-372 1950-317 2782" class="fil0">
      <title>Mii</title>
    </path>
    <path d="M 16464.045 13019.49 L 16465.912 13530.325 C 16531.571 13713.857 16676 14090 16781 14286 C 16914 14532 17025 14747 17181 14981 C 17346 15229 17434 15408 17634 15656 C 17945 16043 17937 15952 17936 16469 C 17933 17938 17936 19407 17936 20877 C 17936 23790 17997 26767 17934 29678 L 34443 29679 C 34437 27192 34442 24704 34442 22217 C 34442 21828 34388 17707 34478 17556 C 34478 17556 34949 17139 34970 17126 C 35307 16920 35718 16296 35918 16195 L 35914 29834 L 35946 29834 L 35930 16092 L 35925 15483 C 35760 15732 35145 16354 34900 16563 C 34716 16719 34529 16888 34322 17043 C 34134 17185 33895 17340 33711 17490 C 33718.563 17714.226 33705.117 17763.98 33736 18137 L 33717 23236 L 33716 28924 L 29789 28919 L 27261 28920 L 18773.415 28812.609 C 18755.415 28348.609 18691.331 17096.198 18783.331 16989.198 C 18706.331 16834.198 18703.146 16484.142 18678.286 16311.428 C 18568.137 16187.57 18211 15830 18098 15686 C 17627 15085 17501 15008 17072 14277 C 16942 14055 16809.902 13709 16690.576 13523.109 C 16525.588 13065.933 16550.886 13157.008 16464.045 13019.49 Z" class="fil6"/>
    <path d="M26945 22322c214-1240-1048-2140-2155-2229-1125-90-2539 540-2688 1774-159 1318 1056 2129 2227 2227 1149 97 2406-562 2616-1772" class="fil3"/>
    <path d="M22421 25448c131 673-271 1485-873 1778-340 165-650 300-1057 275-359-23-733-120-1030-324-136-12-77 331-76 470 2 187-12 377 16 561l7086 8c160-4 118 28 204-60-37-161-257-388-365-521l-681-906c-175-240-361-473-539-702l-554-711c-478-32-935-131-1375-323-194-84-364-206-536-311-178-110-278-261-430-375 32 178 134 309 163 525q22 175 19 349c-1 156 4 124 28 267" class="fil5"/>
    <path d="m24552 25316 554 711c178 229 364 462 539 702l681 906c108 133 328 360 365 521 65 43 518 649 570 764l2528-1c-101-132-195-269-300-400-94-116-243-272-318-378l-972-1295c-90-118-234-267-329-404l-1271-1713-49-2c-550 442-1319 549-1998 589m6145-5772c18 80 198 332 247 403l866 1034c216 225 381 446 582 688 138 166 485 510 553 707 254 127 555 801 772 860l19-5099c-252 39-493 296-725 417z" class="fil2"/>
    <path d="M 19447 23637 C 19899 23440 20028 23308 20699 23348 C 21332 23386 21620 23752 21845 23813 L 21659 23313 C 21636 23184 21522 22979 21475 22825 C 21414 22627 21393 22495 21378 22286 C 21353 21919 21386.695 21616.695 21510.739 21280.173 C 21374.608 21135.263 21365 21114 21195 20911 L 19413 18536 L 19396 23346 C 19394 23543 19391 23563 19447 23637" class="fil5"/>
    <path d="M27261 28920c-52-115-505-721-570-764-86 88-44 56-204 60l-7086-8c-28-184-14-374-16-561-1-139-60-482 76-470l-112-98c-257-90-580-668-642-947-84 331-42 2328-24 2792zm1910-779c75 106 224 262 318 378 105 131 199 268 300 400l3927 5 1-5688c-217-59-518-733-772-860 11 674 83 5617-20 5829-378 66-1475 14-1927 11-422-3-1502 80-1827-75" class="fil7"/>
    <path d="M20292 24057c565-128 1237 223 1378 822 143 602-278 1151-869 1281-1496 326-2202-1718-509-2103m-845-420a1534 1534 0 0 0-537 492c-166 239-209 589-300 699 17 277-1 452 43 735 107 187 118 337 283 567 137 190 293 274 406 418 336 146 478 294 900 333 933 85 1818-398 2074-1217 46-144 9-157 105-216-24-143-29-111-28-267q3-174-19-349c-29-216-131-347-163-525l-366-494c-225-61-513-427-1146-465-671-40-800 92-1252 289" class="fil0"/>
    <path d="M 19413 18536 L 21195 20911 C 21365 21114 21337.305 21084.394 21509.044 21286.955 C 21667.044 20825.955 22321 19968 22768 19833 C 22819 19648 22024.091 18580.2 21782.091 18410.2 C 21558.091 18252.2 20256 18141 20054 17995 C 19904 17888 19520 17559 19398 17513 C 19384 17776 19369 18290 19413 18536" class="fil2"/>
    <path d="M18610 24828c91-110 134-460 300-699 153-219 299-353 537-492-56-74-53-94-51-291l17-4810c-44-246-29-760-15-1023l7-31-691-577c-92 108-41 5914-38 6969 0 160 6 334-1 492-8 162-64 301-65 462" class="fil7"/>
    <path d="M25343 13343c896 680 2102 623 2887-100 1498-1379 437-1622 156-1398-95 76-323 427-432 556-749 893-1783 825-2549-108-133-161-276-470-478-517-333-78-550 173-482 496 57 277 665 894 898 1071" class="fil0"/>
    <path d="M20292 24057c-1693 385-987 2429 509 2103 591-130 1012-679 869-1281-141-599-813-950-1378-822" class="fil3"/>
    <path d="M28586 9290c-1229 347-725 2135 483 1830 499-126 791-661 676-1156a925 925 0 0 0-1159-674m-4196 2c-1246 390-704 2114 479 1824 1206-296 710-2197-479-1824" class="fil0"/>
    <path d="M26697 20088c348-17 783 27 1111-14 340-42 703-60 1043-111 644-97 1245-238 1846-419-113-71-158-89-227-226-89-177-110-98-173-235l487-182c-183 40-393 114-569 170-414 130-1391 296-1815 344-1305 146-1603 32-2746 37 53 132-74 52 284 175 230 78 576 303 759 461m-7355 6460c40 134 81 383 7 531l112 98c297 204 671 301 1030 324 407 25 717-110 1057-275 602-293 1004-1105 873-1778-96 59-59 71-105 216-256 819-1141 1302-2074 1217-422-39-564-187-900-333" class="fil8"/>
    <path fill="#8c8c7a" d="M 30784 18901 L 30297 19083 C 30360 19220 30381 19141 30470 19318 C 30539 19455 30584 19473 30697 19544 L 33011 18554 C 33243 18433 33484 18176 33736 18137 C 33733.12 17891.548 33721.674 17748.452 33711 17490 C 33597 17531 33207 17808 33055 17893 C 32806 18034 32595 18144 32345 18272 C 31996 18451 31157 18826 30784 18901 M 19405 17482 L 19398 17513 C 19520 17559 19904 17888 20054 17995 C 20256 18141 20519 18277 20743 18435 C 20985 18605 22042.616 19113.781 22311 19174 C 22290 19062 22179.158 18943.54 22114.905 18851.178 C 22020.585 18715.595 22037.92 18819.793 21901.595 18593.655 C 21821.523 18460.829 21917.012 18626.357 21786.512 18412.702 C 21414.512 18179.702 20948 17992 20549 17749 C 20212 17543 19695 17200 19416 16938 L 19405 17482 Z"/>
    <path d="M 22311 19174 L 22550.825 19256.453 L 23265.861 19419.066 C 23425.861 19408.066 23682 19425 23852 19398 C 24042.463 19368.419 24208.107 19379.593 24335.683 19362.685 C 24453.931 19347.013 24537.925 19302.952 24616.636 19284.377 C 23916.636 19104.377 23139 18961.595 22438 18674.595 C 22242 18594.595 21936.251 18459.785 21743.953 18390.571 C 21816.572 18495.273 21834.538 18520.229 21903.297 18627.702 C 21982.208 18751.042 22208.286 19050.083 22311 19174 M 21845 23813 L 22211 24307 C 22363 24421 22463 24572 22641 24682 C 22813 24787 22983 24909 23177 24993 C 23617 25185 24074 25284 24552 25316 C 24515 25225 24270 24953 24191 24860 C 24516 24813 25127 24924 25390 24743 C 24471 24870 23923 24903 23069 24540 C 22659 24365 22191 24033 21927 23670 C 21867 23589 21716 23374 21659 23313 L 21845 23813 Z" class="fil8"/>
    <path fill="#8e8c6d" d="M25390 24743c-263 181-874 70-1199 117 79 93 324 365 361 456 679-40 1448-147 1998-589-43-142-133-310-294-297-106 28-314 127-424 170-140 55-328 92-442 143"/>
    <path d="M26256 24430c161-13 251 155 294 297l49 2c278-358 554-419 800-924 297-609 293-704 282-1392-32 108-25 231-70 369-402 1216-1224 1457-1355 1648" class="fil8"/>
    <path fill="#78744a" d="M 19405 17482 L 19416 16938 L 18674 16320 C 18703.146 16560.291 18704.964 16631.994 18703.87 16944.577 M 18707 26132 C 18769 26411 19092 26989 19349 27079 C 19423 26931 19382 26682 19342 26548 C 19229 26404 19073 26320 18936 26130 C 18771 25900 18760 25750 18653 25563 L 18707 26132 Z"/>
    <path fill="#92884c" d="M 16469.005 13533.856 C 16469.005 13533.856 16463.487 13193.587 16466.391 13026.879 C 16472.656 12667.191 16132.973 12185 16036 11755 C 16008 11632 15934 11153 15894 11090 C 15887 11513 16164.26 12866.039 16337.994 13211.92"/>
    <path d="M 22768 19833 L 23263.066 19578.802 L 23576.134 19484.392 L 23949.941 19384.713 C 23949.941 19384.713 23779.441 19407.332 23580.59 19407.359 C 23432.268 19407.378 23267.07 19389.319 23151.014 19369.559 C 22871.552 19321.977 22307.643 19170.893 22307.643 19170.893" class="fil5"/>
    <path d="M 26945 22322 C 26735 23532 25478 24191 24329 24094 C 23158 23996 21943 23185 22102 21867 C 22251 20633 23665 20003 24790 20093 C 25897 20182 27159 21082 26945 22322 M 26427 708 C 31498 443 36954 3810 37331 9212 C 37512 11793 36363 14299 34454 16011 C 28150 21662 17109 18200 16524 10262 C 16330 7625 17519 5212 19435 3460 C 21349 1711 23867 842 26427 708 M 19294 2628 C 19184 2795 18984 2902 18844 3045 C 18706 3185 18579 3322 18441 3454 C 17749 4113 16787 5507 16497 6351 C 16074 7480 15779 8575 15795 9805 L 15894 11090 C 15934 11153 16008 11632 16036 11755 C 16188 12429 16581.715 13320.714 16670.964 13513.357 C 16793.982 13705.339 16942 14055 17072 14277 C 17501 15008 17627 15085 18098 15686 C 18211 15830 18563.851 16217.572 18674 16320 L 19416 16938 C 19695 17200 20212 17543 20549 17749 C 20948 17992 21406 18178 21778 18411 C 21972 18470 22242 18598 22438 18678 C 23139 18965 23830 19092 24530 19272 C 24420 19389 24219 19341 23852 19398 C 23682 19425 23433 19538 23273 19549 L 22768 19833 C 22321 19968 21684 20770 21526 21231 C 21385 21576 21353 21919 21378 22286 C 21393 22495 21414 22627 21475 22825 C 21522 22979 21636 23184 21659 23313 C 21716 23374 21867 23589 21927 23670 C 22191 24033 22659 24365 23069 24540 C 23923 24903 24471 24870 25390 24743 C 25504 24692 25692 24655 25832 24600 C 25942 24557 26150 24458 26256 24429 C 26387 24239 27209 23998 27611 22782 C 27656 22644 27649 22521 27681 22413 C 27708 21897 27668 21463 27435 21017 C 27347 20847 27233 20676 27121 20523 C 27000 20357 26821 20230 26697 20088 C 26514 19930 26168 19705 25938 19626 C 25580 19504 25707 19584 25654 19452 C 26797 19447 27095 19561 28400 19415 C 28824 19367 29801 19201 30215 19071 C 30391 19015 30601 18941 30784 18901 C 31157 18826 31996 18451 32345 18272 C 32595 18144 32806 18034 33055 17893 C 33207 17808 33597 17531 33711 17490 C 33895 17340 34133 17185 34322 17043 C 34529 16888 34716 16719 34900 16563 C 35145 16354 35760 15732 35925 15483 C 37007 14167 37843 12437 37993 10720 C 38019 10421 38023 10123 38057 9833 C 38040 8080 37605 6597 36735 5124 L 35902 3977 C 35682 3762 35478 3512 35255 3289 C 35115 3148 34630 2736 34564 2628 C 34189 2447 33643 1756 31484 852 C 30665 510 29450 202 28559 100 C 28415 84 27517 22 27481 0 L 26347 0 C 26282 35 25407 86 25231 110 C 24062 273 23449 481 22337 859 C 21781 1048 21222 1388 20703 1661 C 20282 1883 19496 2525 19294 2628" class="fil0" style="transform-box: fill-box; transform-origin: 50% 50%;" transform="matrix(1, 0, 0, 1, -0.007, 0)"/>
  </g>
</svg>